STARTFONT 2.1
FONT -MIT-RUNLEN KST-Medium-R-Normal--3-1-200-200-P-38-ISO8859-1
SIZE 1 200 200
FONTBOUNDINGBOX 96 3 -12 0
STARTPROPERTIES 17
ADD_STYLE_NAME ""
AVERAGE_WIDTH 38
CHARSET_ENCODING "1"
CHARSET_REGISTRY "ISO8859"
DEFAULT_CHAR 0
FAMILY "RUNLEN KST"
FONT_ASCENT 3
FONT_DESCENT 0
FOUNDRY "MIT"
PIXEL_SIZE 3
POINT_SIZE 1
RESOLUTION_X 200
RESOLUTION_Y 200
SETWIDTH_NAME "Normal"
SLANT "R"
SPACING "P"
WEIGHT_NAME "Medium"
ENDPROPERTIES
CHARS 83
STARTCHAR char0
ENCODING 0
SWIDTH 18000 0
DWIDTH 18 0
BBX 1 3 0 0
BITMAP
00
00
00
ENDCHAR
STARTCHAR char2
ENCODING 2
SWIDTH 18000 0
DWIDTH 18 0
BBX 3 3 12 0
BITMAP
E0
E0
E0
ENDCHAR
STARTCHAR char4
ENCODING 4
SWIDTH 18000 0
DWIDTH 18 0
BBX 3 3 9 0
BITMAP
E0
E0
E0
ENDCHAR
STARTCHAR char6
ENCODING 6
SWIDTH 18000 0
DWIDTH 18 0
BBX 6 3 9 0
BITMAP
FC
FC
FC
ENDCHAR
STARTCHAR char8
ENCODING 8
SWIDTH 18000 0
DWIDTH 18 0
BBX 3 3 6 0
BITMAP
E0
E0
E0
ENDCHAR
STARTCHAR char10
ENCODING 10
SWIDTH 18000 0
DWIDTH 18 0
BBX 9 3 6 0
BITMAP
E380
E380
E380
ENDCHAR
STARTCHAR char12
ENCODING 12
SWIDTH 18000 0
DWIDTH 18 0
BBX 6 3 6 0
BITMAP
FC
FC
FC
ENDCHAR
STARTCHAR char14
ENCODING 14
SWIDTH 18000 0
DWIDTH 18 0
BBX 9 3 6 0
BITMAP
FF80
FF80
FF80
ENDCHAR
STARTCHAR char16
ENCODING 16
SWIDTH 18000 0
DWIDTH 18 0
BBX 3 3 3 0
BITMAP
E0
E0
E0
ENDCHAR
STARTCHAR char18
ENCODING 18
SWIDTH 18000 0
DWIDTH 18 0
BBX 12 3 3 0
BITMAP
E070
E070
E070
ENDCHAR
STARTCHAR char20
ENCODING 20
SWIDTH 18000 0
DWIDTH 18 0
BBX 9 3 3 0
BITMAP
E380
E380
E380
ENDCHAR
STARTCHAR char22
ENCODING 22
SWIDTH 18000 0
DWIDTH 18 0
BBX 12 3 3 0
BITMAP
E3F0
E3F0
E3F0
ENDCHAR
STARTCHAR char24
ENCODING 24
SWIDTH 18000 0
DWIDTH 18 0
BBX 6 3 3 0
BITMAP
FC
FC
FC
ENDCHAR
STARTCHAR char26
ENCODING 26
SWIDTH 18000 0
DWIDTH 18 0
BBX 12 3 3 0
BITMAP
FC70
FC70
FC70
ENDCHAR
STARTCHAR char28
ENCODING 28
SWIDTH 18000 0
DWIDTH 18 0
BBX 9 3 3 0
BITMAP
FF80
FF80
FF80
ENDCHAR
STARTCHAR char30
ENCODING 30
SWIDTH 18000 0
DWIDTH 18 0
BBX 12 3 3 0
BITMAP
FFF0
FFF0
FFF0
ENDCHAR
STARTCHAR char32
ENCODING 32
SWIDTH 18000 0
DWIDTH 18 0
BBX 3 3 0 0
BITMAP
E0
E0
E0
ENDCHAR
STARTCHAR char34
ENCODING 34
SWIDTH 18000 0
DWIDTH 18 0
BBX 15 3 0 0
BITMAP
E00E
E00E
E00E
ENDCHAR
STARTCHAR char36
ENCODING 36
SWIDTH 18000 0
DWIDTH 18 0
BBX 12 3 0 0
BITMAP
E070
E070
E070
ENDCHAR
STARTCHAR char38
ENCODING 38
SWIDTH 18000 0
DWIDTH 18 0
BBX 15 3 0 0
BITMAP
E07E
E07E
E07E
ENDCHAR
STARTCHAR char40
ENCODING 40
SWIDTH 18000 0
DWIDTH 18 0
BBX 9 3 0 0
BITMAP
E380
E380
E380
ENDCHAR
STARTCHAR char42
ENCODING 42
SWIDTH 18000 0
DWIDTH 18 0
BBX 15 3 0 0
BITMAP
E38E
E38E
E38E
ENDCHAR
STARTCHAR char44
ENCODING 44
SWIDTH 18000 0
DWIDTH 18 0
BBX 12 3 0 0
BITMAP
E3F0
E3F0
E3F0
ENDCHAR
STARTCHAR char46
ENCODING 46
SWIDTH 18000 0
DWIDTH 18 0
BBX 15 3 0 0
BITMAP
E3FE
E3FE
E3FE
ENDCHAR
STARTCHAR char48
ENCODING 48
SWIDTH 18000 0
DWIDTH 18 0
BBX 6 3 0 0
BITMAP
FC
FC
FC
ENDCHAR
STARTCHAR char50
ENCODING 50
SWIDTH 18000 0
DWIDTH 18 0
BBX 15 3 0 0
BITMAP
FC0E
FC0E
FC0E
ENDCHAR
STARTCHAR char52
ENCODING 52
SWIDTH 18000 0
DWIDTH 18 0
BBX 12 3 0 0
BITMAP
FC70
FC70
FC70
ENDCHAR
STARTCHAR char54
ENCODING 54
SWIDTH 18000 0
DWIDTH 18 0
BBX 15 3 0 0
BITMAP
FC7E
FC7E
FC7E
ENDCHAR
STARTCHAR char56
ENCODING 56
SWIDTH 18000 0
DWIDTH 18 0
BBX 9 3 0 0
BITMAP
FF80
FF80
FF80
ENDCHAR
STARTCHAR char58
ENCODING 58
SWIDTH 18000 0
DWIDTH 18 0
BBX 15 3 0 0
BITMAP
FF8E
FF8E
FF8E
ENDCHAR
STARTCHAR char60
ENCODING 60
SWIDTH 18000 0
DWIDTH 18 0
BBX 12 3 0 0
BITMAP
FFF0
FFF0
FFF0
ENDCHAR
STARTCHAR char62
ENCODING 62
SWIDTH 18000 0
DWIDTH 18 0
BBX 15 3 0 0
BITMAP
FFFE
FFFE
FFFE
ENDCHAR
STARTCHAR char64
ENCODING 64
SWIDTH 2000 0
DWIDTH 2 0
BBX 1 3 0 0
BITMAP
00
00
00
ENDCHAR
STARTCHAR char66
ENCODING 66
SWIDTH 8000 0
DWIDTH 8 0
BBX 1 3 0 0
BITMAP
00
00
00
ENDCHAR
STARTCHAR char68
ENCODING 68
SWIDTH 14000 0
DWIDTH 14 0
BBX 1 3 0 0
BITMAP
00
00
00
ENDCHAR
STARTCHAR char70
ENCODING 70
SWIDTH 20000 0
DWIDTH 20 0
BBX 1 3 0 0
BITMAP
00
00
00
ENDCHAR
STARTCHAR char72
ENCODING 72
SWIDTH 26000 0
DWIDTH 26 0
BBX 1 3 0 0
BITMAP
00
00
00
ENDCHAR
STARTCHAR char74
ENCODING 74
SWIDTH 32000 0
DWIDTH 32 0
BBX 1 3 0 0
BITMAP
00
00
00
ENDCHAR
STARTCHAR char76
ENCODING 76
SWIDTH 38000 0
DWIDTH 38 0
BBX 1 3 0 0
BITMAP
00
00
00
ENDCHAR
STARTCHAR char78
ENCODING 78
SWIDTH 44000 0
DWIDTH 44 0
BBX 1 3 0 0
BITMAP
00
00
00
ENDCHAR
STARTCHAR char80
ENCODING 80
SWIDTH 50000 0
DWIDTH 50 0
BBX 1 3 0 0
BITMAP
00
00
00
ENDCHAR
STARTCHAR char82
ENCODING 82
SWIDTH 56000 0
DWIDTH 56 0
BBX 1 3 0 0
BITMAP
00
00
00
ENDCHAR
STARTCHAR char84
ENCODING 84
SWIDTH 62000 0
DWIDTH 62 0
BBX 1 3 0 0
BITMAP
00
00
00
ENDCHAR
STARTCHAR char86
ENCODING 86
SWIDTH 68000 0
DWIDTH 68 0
BBX 1 3 0 0
BITMAP
00
00
00
ENDCHAR
STARTCHAR char88
ENCODING 88
SWIDTH 74000 0
DWIDTH 74 0
BBX 1 3 0 0
BITMAP
00
00
00
ENDCHAR
STARTCHAR char90
ENCODING 90
SWIDTH 80000 0
DWIDTH 80 0
BBX 1 3 0 0
BITMAP
00
00
00
ENDCHAR
STARTCHAR char91
ENCODING 91
SWIDTH 84000 0
DWIDTH 84 0
BBX 1 3 0 0
BITMAP
00
00
00
ENDCHAR
STARTCHAR char92
ENCODING 92
SWIDTH 87000 0
DWIDTH 87 0
BBX 1 3 0 0
BITMAP
00
00
00
ENDCHAR
STARTCHAR char93
ENCODING 93
SWIDTH 90000 0
DWIDTH 90 0
BBX 1 3 0 0
BITMAP
00
00
00
ENDCHAR
STARTCHAR char94
ENCODING 94
SWIDTH 93000 0
DWIDTH 93 0
BBX 1 3 0 0
BITMAP
00
00
00
ENDCHAR
STARTCHAR char95
ENCODING 95
SWIDTH 96000 0
DWIDTH 96 0
BBX 1 3 0 0
BITMAP
00
00
00
ENDCHAR
STARTCHAR char96
ENCODING 96
SWIDTH 3000 0
DWIDTH 3 0
BBX 3 3 0 0
BITMAP
E0
E0
E0
ENDCHAR
STARTCHAR char97
ENCODING 97
SWIDTH 6000 0
DWIDTH 6 0
BBX 6 3 0 0
BITMAP
FC
FC
FC
ENDCHAR
STARTCHAR char98
ENCODING 98
SWIDTH 9000 0
DWIDTH 9 0
BBX 9 3 0 0
BITMAP
FF80
FF80
FF80
ENDCHAR
STARTCHAR char99
ENCODING 99
SWIDTH 12000 0
DWIDTH 12 0
BBX 12 3 0 0
BITMAP
FFF0
FFF0
FFF0
ENDCHAR
STARTCHAR char100
ENCODING 100
SWIDTH 15000 0
DWIDTH 15 0
BBX 15 3 0 0
BITMAP
FFFE
FFFE
FFFE
ENDCHAR
STARTCHAR char101
ENCODING 101
SWIDTH 18000 0
DWIDTH 18 0
BBX 18 3 0 0
BITMAP
FFFFC0
FFFFC0
FFFFC0
ENDCHAR
STARTCHAR char102
ENCODING 102
SWIDTH 21000 0
DWIDTH 21 0
BBX 21 3 0 0
BITMAP
FFFFF8
FFFFF8
FFFFF8
ENDCHAR
STARTCHAR char103
ENCODING 103
SWIDTH 24000 0
DWIDTH 24 0
BBX 24 3 0 0
BITMAP
FFFFFF
FFFFFF
FFFFFF
ENDCHAR
STARTCHAR char104
ENCODING 104
SWIDTH 27000 0
DWIDTH 27 0
BBX 27 3 0 0
BITMAP
FFFFFFE0
FFFFFFE0
FFFFFFE0
ENDCHAR
STARTCHAR char105
ENCODING 105
SWIDTH 30000 0
DWIDTH 30 0
BBX 30 3 0 0
BITMAP
FFFFFFFC
FFFFFFFC
FFFFFFFC
ENDCHAR
STARTCHAR char106
ENCODING 106
SWIDTH 33000 0
DWIDTH 33 0
BBX 33 3 0 0
BITMAP
FFFFFFFF80
FFFFFFFF80
FFFFFFFF80
ENDCHAR
STARTCHAR char107
ENCODING 107
SWIDTH 36000 0
DWIDTH 36 0
BBX 36 3 0 0
BITMAP
FFFFFFFFF0
FFFFFFFFF0
FFFFFFFFF0
ENDCHAR
STARTCHAR char108
ENCODING 108
SWIDTH 39000 0
DWIDTH 39 0
BBX 39 3 0 0
BITMAP
FFFFFFFFFE
FFFFFFFFFE
FFFFFFFFFE
ENDCHAR
STARTCHAR char109
ENCODING 109
SWIDTH 42000 0
DWIDTH 42 0
BBX 42 3 0 0
BITMAP
FFFFFFFFFFC0
FFFFFFFFFFC0
FFFFFFFFFFC0
ENDCHAR
STARTCHAR char110
ENCODING 110
SWIDTH 45000 0
DWIDTH 45 0
BBX 45 3 0 0
BITMAP
FFFFFFFFFFF8
FFFFFFFFFFF8
FFFFFFFFFFF8
ENDCHAR
STARTCHAR char111
ENCODING 111
SWIDTH 48000 0
DWIDTH 48 0
BBX 48 3 0 0
BITMAP
FFFFFFFFFFFF
FFFFFFFFFFFF
FFFFFFFFFFFF
ENDCHAR
STARTCHAR char112
ENCODING 112
SWIDTH 51000 0
DWIDTH 51 0
BBX 51 3 0 0
BITMAP
FFFFFFFFFFFFE0
FFFFFFFFFFFFE0
FFFFFFFFFFFFE0
ENDCHAR
STARTCHAR char113
ENCODING 113
SWIDTH 54000 0
DWIDTH 54 0
BBX 54 3 0 0
BITMAP
FFFFFFFFFFFFFC
FFFFFFFFFFFFFC
FFFFFFFFFFFFFC
ENDCHAR
STARTCHAR char114
ENCODING 114
SWIDTH 57000 0
DWIDTH 57 0
BBX 57 3 0 0
BITMAP
FFFFFFFFFFFFFF80
FFFFFFFFFFFFFF80
FFFFFFFFFFFFFF80
ENDCHAR
STARTCHAR char115
ENCODING 115
SWIDTH 60000 0
DWIDTH 60 0
BBX 60 3 0 0
BITMAP
FFFFFFFFFFFFFFF0
FFFFFFFFFFFFFFF0
FFFFFFFFFFFFFFF0
ENDCHAR
STARTCHAR char116
ENCODING 116
SWIDTH 63000 0
DWIDTH 63 0
BBX 63 3 0 0
BITMAP
FFFFFFFFFFFFFFFE
FFFFFFFFFFFFFFFE
FFFFFFFFFFFFFFFE
ENDCHAR
STARTCHAR char117
ENCODING 117
SWIDTH 66000 0
DWIDTH 66 0
BBX 66 3 0 0
BITMAP
FFFFFFFFFFFFFFFFC0
FFFFFFFFFFFFFFFFC0
FFFFFFFFFFFFFFFFC0
ENDCHAR
STARTCHAR char118
ENCODING 118
SWIDTH 69000 0
DWIDTH 69 0
BBX 69 3 0 0
BITMAP
FFFFFFFFFFFFFFFFF8
FFFFFFFFFFFFFFFFF8
FFFFFFFFFFFFFFFFF8
ENDCHAR
STARTCHAR char119
ENCODING 119
SWIDTH 72000 0
DWIDTH 72 0
BBX 72 3 0 0
BITMAP
FFFFFFFFFFFFFFFFFF
FFFFFFFFFFFFFFFFFF
FFFFFFFFFFFFFFFFFF
ENDCHAR
STARTCHAR char120
ENCODING 120
SWIDTH 75000 0
DWIDTH 75 0
BBX 75 3 0 0
BITMAP
FFFFFFFFFFFFFFFFFFE0
FFFFFFFFFFFFFFFFFFE0
FFFFFFFFFFFFFFFFFFE0
ENDCHAR
STARTCHAR char121
ENCODING 121
SWIDTH 78000 0
DWIDTH 78 0
BBX 78 3 0 0
BITMAP
FFFFFFFFFFFFFFFFFFFC
FFFFFFFFFFFFFFFFFFFC
FFFFFFFFFFFFFFFFFFFC
ENDCHAR
STARTCHAR char122
ENCODING 122
SWIDTH 81000 0
DWIDTH 81 0
BBX 81 3 0 0
BITMAP
FFFFFFFFFFFFFFFFFFFF80
FFFFFFFFFFFFFFFFFFFF80
FFFFFFFFFFFFFFFFFFFF80
ENDCHAR
STARTCHAR char123
ENCODING 123
SWIDTH 84000 0
DWIDTH 84 0
BBX 84 3 0 0
BITMAP
FFFFFFFFFFFFFFFFFFFFF0
FFFFFFFFFFFFFFFFFFFFF0
FFFFFFFFFFFFFFFFFFFFF0
ENDCHAR
STARTCHAR char124
ENCODING 124
SWIDTH 87000 0
DWIDTH 87 0
BBX 87 3 0 0
BITMAP
FFFFFFFFFFFFFFFFFFFFFE
FFFFFFFFFFFFFFFFFFFFFE
FFFFFFFFFFFFFFFFFFFFFE
ENDCHAR
STARTCHAR char125
ENCODING 125
SWIDTH 90000 0
DWIDTH 90 0
BBX 90 3 0 0
BITMAP
FFFFFFFFFFFFFFFFFFFFFFC0
FFFFFFFFFFFFFFFFFFFFFFC0
FFFFFFFFFFFFFFFFFFFFFFC0
ENDCHAR
STARTCHAR char126
ENCODING 126
SWIDTH 93000 0
DWIDTH 93 0
BBX 93 3 0 0
BITMAP
FFFFFFFFFFFFFFFFFFFFFFF8
FFFFFFFFFFFFFFFFFFFFFFF8
FFFFFFFFFFFFFFFFFFFFFFF8
ENDCHAR
STARTCHAR char127
ENCODING 127
SWIDTH 96000 0
DWIDTH 96 0
BBX 96 3 0 0
BITMAP
FFFFFFFFFFFFFFFFFFFFFFFF
FFFFFFFFFFFFFFFFFFFFFFFF
FFFFFFFFFFFFFFFFFFFFFFFF
ENDCHAR
ENDFONT
